# xmcd
#
# Track frame offsets:
#	150
#	11716
#	26524
#	39409
#	50217
#	64007
#	76944
#	88181
#	105117
#	114868
#	129810
#	141208
#	156429
#	166903
#	178582
#
# Disc length: 2552 seconds
#
# Revision: 0
# Processed by: cddbd v1.5.2PL0 Copyright (c) Steve Scherf et al.
# Submitted via: audiograbber 1.83.01
#
DISCID=b609f60f
DTITLE=Various Artist - The Soul Story: Volume 5 - Disc 2
DYEAR=2006
DGENRE=Soul
TTITLE0=Wilson Pickett - Funky Broadway
TTITLE1=Aretha Franklin - Share Your Love With Me
TTITLE2=Sam and Dave - I Thank You
TTITLE3=Otis Redding - Pain In My Heart
TTITLE4=Ike and Tina Turner - It's Gonna Work Out Fine
TTITLE5=Dee Clark - Raindrops
TTITLE6=Rufus Thomas - Walking The Dog
TTITLE7=The Moments - Love On A Two-Way Street
TTITLE8=The Drifters - There Goes My Baby
TTITLE9=Esther Phillips - Release Me
TTITLE10=Solomon Burke - Cry To Me
TTITLE11=Dionne Warwick - Don't Make Me Over
TTITLE12=Fred Hughes - Ooo Wee, Baby, I Love You
TTITLE13=LaVern Baker - I Cried A Tear
TTITLE14=Jerry Butler and Betty Everett - Let It Be Me
EXTD=
EXTT0=
EXTT1=
EXTT2=
EXTT3=
EXTT4=
EXTT5=
EXTT6=
EXTT7=
EXTT8=
EXTT9=
EXTT10=
EXTT11=
EXTT12=
EXTT13=
EXTT14=
PLAYORDER=
